[Header]
FileType HTR
DataType HTRS
FileVersion 1
NumSegments 64
NumFrames 4
DataFrameRate 30
EulerRotationOrder ZYX
CalibrationUnits mm
RotationUnits Degrees
GlobalAxisofGravity Y
BoneLengthAxis Y
ScaleFactor 1.0
[SegmentNames&Hierarchy]
Hips	GLOBAL
Spine	Hips
Spine1	Spine
Spine2	Spine1
Neck	Spine2
Head	Neck
LeftEye	Head
RightEye	Head
LeftShoulder	Spine2
LeftArm	LeftShoulder
LeftForeArm	LeftArm
LeftHand	LeftForeArm
LeftHandThumb1	LeftHand
LeftHandThumb2	LeftHandThumb1
LeftHandThumb3	LeftHandThumb2
LeftHandThumb4	LeftHandThumb3
LeftHandIndex1	LeftHand
LeftHandIndex2	LeftHandIndex1
LeftHandIndex3	LeftHandIndex2
LeftHandIndex4	LeftHandIndex3
LeftHandMiddle1	LeftHand
LeftHandMiddle2	LeftHandMiddle1
LeftHandMiddle3	LeftHandMiddle2
LeftHandMiddle4	LeftHandMiddle3
LeftHandRing1	LeftHand
LeftHandRing2	LeftHandRing1
LeftHandRing3	LeftHandRing2
LeftHandRing4	LeftHandRing3
LeftHandPinky1	LeftHand
LeftHandPinky2	LeftHandPinky1
LeftHandPinky3	LeftHandPinky2
LeftHandPinky4	LeftHandPinky3
RightShoulder	Spine2
RightArm	RightShoulder
RightForeArm	RightArm
RightHand	RightForeArm
RightHandPinky1	RightHand
RightHandPinky2	RightHandPinky1
RightHandPinky3	RightHandPinky2
RightHandPinky4	RightHandPinky3
RightHandRing1	RightHand
RightHandRing2	RightHandRing1
RightHandRing3	RightHandRing2
RightHandRing4	RightHandRing3
RightHandMiddle1	RightHand
RightHandMiddle2	RightHandMiddle1
RightHandMiddle3	RightHandMiddle2
RightHandMiddle4	RightHandMiddle3
RightHandIndex1	RightHand
RightHandIndex2	RightHandIndex1
RightHandIndex3	RightHandIndex2
RightHandIndex4	RightHandIndex3
RightHandThumb1	RightHand
RightHandThumb2	RightHandThumb1
RightHandThumb3	RightHandThumb2
RightHandThumb4	RightHandThumb3
LeftUpLeg	Hips
LeftLeg	LeftUpLeg
LeftFoot	LeftLeg
LeftToeBase	LeftFoot
RightUpLeg	Hips
RightLeg	RightUpLeg
RightFoot	RightLeg
RightToeBase	RightFoot
[BasePosition]
Hips	0	0	0	0	0	0	1
Spine	0	0	0	0	0	0	1
Spine1	0	0	0	0	0	0	1
Spine2	0	0	0	0	0	0	1
Neck	0	0	0	0	0	0	1
Head	0	0	0	0	0	0	1
LeftEye	0	0	0	0	0	0	1
RightEye	0	0	0	0	0	0	1
LeftShoulder	0	0	0	0	0	0	1
LeftArm	0	0	0	0	0	0	1
LeftForeArm	0	0	0	0	0	0	1
LeftHand	0	0	0	0	0	0	1
LeftHandThumb1	0	0	0	0	0	0	1
LeftHandThumb2	0	0	0	0	0	0	1
LeftHandThumb3	0	0	0	0	0	0	1
LeftHandThumb4	0	0	0	0	0	0	1
LeftHandIndex1	0	0	0	0	0	0	1
LeftHandIndex2	0	0	0	0	0	0	1
LeftHandIndex3	0	0	0	0	0	0	1
LeftHandIndex4	0	0	0	0	0	0	1
LeftHandMiddle1	0	0	0	0	0	0	1
LeftHandMiddle2	0	0	0	0	0	0	1
LeftHandMiddle3	0	0	0	0	0	0	1
LeftHandMiddle4	0	0	0	0	0	0	1
LeftHandRing1	0	0	0	0	0	0	1
LeftHandRing2	0	0	0	0	0	0	1
LeftHandRing3	0	0	0	0	0	0	1
LeftHandRing4	0	0	0	0	0	0	1
LeftHandPinky1	0	0	0	0	0	0	1
LeftHandPinky2	0	0	0	0	0	0	1
LeftHandPinky3	0	0	0	0	0	0	1
LeftHandPinky4	0	0	0	0	0	0	1
RightShoulder	0	0	0	0	0	0	1
RightArm	0	0	0	0	0	0	1
RightForeArm	0	0	0	0	0	0	1
RightHand	0	0	0	0	0	0	1
RightHandPinky1	0	0	0	0	0	0	1
RightHandPinky2	0	0	0	0	0	0	1
RightHandPinky3	0	0	0	0	0	0	1
RightHandPinky4	0	0	0	0	0	0	1
RightHandRing1	0	0	0	0	0	0	1
RightHandRing2	0	0	0	0	0	0	1
RightHandRing3	0	0	0	0	0	0	1
RightHandRing4	0	0	0	0	0	0	1
RightHandMiddle1	0	0	0	0	0	0	1
RightHandMiddle2	0	0	0	0	0	0	1
RightHandMiddle3	0	0	0	0	0	0	1
RightHandMiddle4	0	0	0	0	0	0	1
RightHandIndex1	0	0	0	0	0	0	1
RightHandIndex2	0	0	0	0	0	0	1
RightHandIndex3	0	0	0	0	0	0	1
RightHandIndex4	0	0	0	0	0	0	1
RightHandThumb1	0	0	0	0	0	0	1
RightHandThumb2	0	0	0	0	0	0	1
RightHandThumb3	0	0	0	0	0	0	1
RightHandThumb4	0	0	0	0	0	0	1
LeftUpLeg	0	0	0	0	0	0	1
LeftLeg	0	0	0	0	0	0	1
LeftFoot	0	0	0	0	0	0	1
LeftToeBase	0	0	0	0	0	0	1
RightUpLeg	0	0	0	0	0	0	1
RightLeg	0	0	0	0	0	0	1
RightFoot	0	0	0	0	0	0	1
RightToeBase	0	0	0	0	0	0	1
[Hips]
35	1.810941219	619.0391846	429.960144	21.92399216	1.404903889	-0.6117004752	1.0
36	1.687418461	619.6576538	420.4129639	17.58514786	1.398365259	-0.6477936506	1.0
37	1.562207699	621.1748047	409.3109436	13.34886169	1.383024931	-0.6932190657	1.0
38	1.447937369	623.8959351	396.8034668	9.337955475	1.357781649	-0.7480647564	1.0
[Spine]
35	0	101.8159943	1.315000057	20.62334442	-1.074660182	1.092100501	1.0
36	0	101.8159943	1.315000057	17.27853584	-1.137162089	1.040157676	1.0
37	0	101.8159943	1.315000057	13.67007828	-1.185384512	0.9938715696	1.0
38	0	101.8159943	1.315000057	10.00332451	-1.218214393	0.9585489035	1.0
[Spine1]
35	0	100.8349991	-10.00800037	10.05476856	-4.864922448e-05	4.665288361e-05	1.0
36	0	100.8349991	-10.00800037	8.433444977	-4.728301792e-05	4.803821503e-05	1.0
37	0	100.8349991	-10.00800037	6.637939453	-4.57231472e-05	4.952473682e-05	1.0
38	0	100.8349991	-10.00800037	4.775699139	-4.405505024e-05	5.101166971e-05	1.0
[Spine2]
35	0	91	-13.73399925	12.09326363	-5.04476354e-08	3.125884973e-07	1.0
36	0	91	-13.73399925	10.13084221	-3.864110454e-08	3.142575338e-07	1.0
37	0	91	-13.73399925	7.996957302	-2.574827285e-08	3.155657566e-07	1.0
38	0	91	-13.73399925	5.816027164	-1.250732318e-08	3.163426356e-07	1.0
[Neck]
35	0	166.7169952	-25.16200066	-5.039511681	3.420637142e-07	3.244919355e-07	1.0
36	0	166.7169952	-25.16200066	-3.992693186	3.354728619e-07	3.312967181e-07	1.0
37	0	166.7169952	-25.16200066	-3.01908946	3.292153394e-07	3.374951802e-07	1.0
38	0	166.7169952	-25.16200066	-2.121632814	3.233489281e-07	3.43115687e-07	1.0
[Head]
35	0	96.17900085	16.84999847	22.19248581	0.1740786284	-0.1096658632	1.0
36	0	96.17900085	16.84999847	19.15125084	0.1590854973	-0.08288258314	1.0
37	0	96.17900085	16.84999847	15.47416496	0.1337836087	-0.05834295601	1.0
38	0	96.17900085	16.84999847	11.47538662	0.1050547734	-0.03712954745	1.0
[LeftEye]
35	30.6760006	64.09500122	92.83599854	0	0	0	1.0
36	30.6760006	64.09500122	92.83599854	0	0	0	1.0
37	30.6760006	64.09500122	92.83599854	0	0	0	1.0
38	30.6760006	64.09500122	92.83599854	0	0	0	1.0
[RightEye]
35	-30.6760006	64.09500122	92.83499908	0	0	0	1.0
36	-30.6760006	64.09500122	92.83499908	0	0	0	1.0
37	-30.6760006	64.09500122	92.83499908	0	0	0	1.0
38	-30.6760006	64.09500122	92.83499908	0	0	0	1.0
[LeftShoulder]
35	45.70400238	109.4599991	-26.28000069	-7.068834305	-17.39535713	27.1491394	1.0
36	45.70400238	109.4599991	-26.28000069	-4.592169285	-15.20277786	22.47282028	1.0
37	45.70400238	109.4599991	-26.28000069	-2.476682425	-12.41481209	17.59420586	1.0
38	45.70400238	109.4599991	-26.28000069	-0.9208956957	-9.563664436	12.75835991	1.0
[LeftArm]
35	105.923996	-5.24600029	-22.32099915	-49.91391373	-27.70706367	4.045004368	1.0
36	105.923996	-5.24600029	-22.32099915	-42.01331329	-25.89152718	-1.78326571	1.0
37	105.923996	-5.24600029	-22.32099915	-32.99912643	-22.14855957	-6.447262287	1.0
38	105.923996	-5.24600029	-22.32099915	-23.91761208	-17.39810181	-8.659833908	1.0
[LeftForeArm]
35	278.414978	-0.0009999999311	0	1.045845011e-06	-0.1010239571	-0.000201914605	1.0
36	278.414978	-0.0009999999311	0	-1.463851731e-06	-0.1712672114	-0.0002061021951	1.0
37	278.414978	-0.0009999999311	0	-2.41339626e-06	-0.2454479337	-0.0002074999065	1.0
38	278.414978	-0.0009999999311	0	-2.042542292e-06	-0.3159025908	-0.0002058321697	1.0
[LeftHand]
35	283.2879944	0	0	6.559653759	-3.244944096	-25.04208183	1.0
36	283.2879944	0	0	4.635437965	-3.558888197	-20.56483841	1.0
37	283.2879944	0	0	2.380940199	-3.743505478	-15.55855751	1.0
38	283.2879944	0	0	0.008678650483	-3.762631416	-10.36899853	1.0
[LeftHandThumb1]
35	24.6609993	-15.75	26.8239994	9.178967476	3.236619711	-10.12206936	1.0
36	24.6609993	-15.75	26.8239994	6.854138851	1.479100108	-7.794145107	1.0
37	24.6609993	-15.75	26.8239994	4.262221336	-0.2800720632	-5.225961208	1.0
38	24.6609993	-15.75	26.8239994	1.533499479	-1.812784433	-2.506283998	1.0
[LeftHandThumb2]
35	32.29800034	-18.64699936	18.64699936	42.16963577	44.06957626	27.3561821	1.0
36	32.29800034	-18.64699936	18.64699936	34.27235413	39.86627579	21.12439728	1.0
37	32.29800034	-18.64699936	18.64699936	27.09897614	34.88708496	15.73424435	1.0
38	32.29800034	-18.64699936	18.64699936	20.97093391	30.03337479	11.53646088	1.0
[LeftHandThumb3]
35	26.52600098	-15.31499958	15.31499958	5.239279747	13.01842976	17.75606346	1.0
36	26.52600098	-15.31499958	15.31499958	3.035974026	11.11886787	16.7984314	1.0
37	26.52600098	-15.31499958	15.31499958	0.9157343507	9.200066566	15.92586708	1.0
38	26.52600098	-15.31499958	15.31499958	-1.039813995	7.530098438	15.18212223	1.0
[LeftHandThumb4]
35	19.54599953	-11.28499985	11.28499985	0	0	0	1.0
36	19.54599953	-11.28499985	11.28499985	0	0	0	1.0
37	19.54599953	-11.28499985	11.28499985	0	0	0	1.0
38	19.54599953	-11.28499985	11.28499985	0	0	0	1.0
[LeftHandIndex1]
35	91.09299469	-5.170999527	22.60099792	-4.017975807	12.85766125	-52.97072983	1.0
36	91.09299469	-5.170999527	22.60099792	-3.188750505	10.15316486	-44.32873917	1.0
37	91.09299469	-5.170999527	22.60099792	-2.368020058	7.722208023	-35.5570755	1.0
38	91.09299469	-5.170999527	22.60099792	-1.629237533	5.664870739	-26.89513779	1.0
[LeftHandIndex2]
35	36.76399994	0	0	-0.4795272946	2.31738472	-23.37032318	1.0
36	36.76399994	0	0	-0.3375092149	1.957025528	-19.56819725	1.0
37	36.76399994	0	0	-0.214903906	1.570047855	-15.58547592	1.0
38	36.76399994	0	0	-0.1184881628	1.170032859	-11.54871845	1.0
[LeftHandIndex3]
35	28.83100128	0	0	-0.3325598538	1.941936016	-19.41197205	1.0
36	28.83100128	0	0	-0.2164883167	1.575826645	-15.64379215	1.0
37	28.83100128	0	0	-0.1251643449	1.201603055	-11.86539745	1.0
38	28.83100128	0	0	-0.06224379689	0.8495496511	-8.357448578	1.0
[LeftHandIndex4]
35	23.92700005	0	0	0	0	0	1.0
36	23.92700005	0	0	0	0	0	1.0
37	23.92700005	0	0	0	0	0	1.0
38	23.92700005	0	0	0	0	0	1.0
[LeftHandMiddle1]
35	95.33399963	0	0	-4.411747932	5.313406467	-55.20084381	1.0
36	95.33399963	0	0	-3.52161932	4.630275249	-46.71617126	1.0
37	95.33399963	0	0	-2.630994081	4.00775671	-37.77888489	1.0
38	95.33399963	0	0	-1.80439949	3.405206203	-28.70116425	1.0
[LeftHandMiddle2]
35	36.98199844	0	0	-0.7772359252	2.910363913	-29.88949394	1.0
36	36.98199844	0	0	-0.5437712669	2.461016417	-24.91567039	1.0
37	36.98199844	0	0	-0.3459728956	1.980460644	-19.81419182	1.0
38	36.98199844	0	0	-0.1912973523	1.482141972	-14.69257927	1.0
[LeftHandMiddle3]
35	29.50900078	0	0	-0.2138347477	1.566599369	-15.54900455	1.0
36	29.50900078	0	0	-0.1471770406	1.303306818	-12.8853035	1.0
37	29.50900078	0	0	-0.09437205642	1.045997024	-10.30951118	1.0
38	29.50900078	0	0	-0.05378641933	0.7914279103	-7.781891823	1.0
[LeftHandMiddle4]
35	28.3390007	0	0	0	0	0	1.0
36	28.3390007	0	0	0	0	0	1.0
37	28.3390007	0	0	0	0	0	1.0
38	28.3390007	0	0	0	0	0	1.0
[LeftHandRing1]
35	91.04499817	-0.4390000105	-18.65100098	-3.880596876	3.071146488	-49.86328125	1.0
36	91.04499817	-0.4390000105	-18.65100098	-3.060702562	3.883077621	-42.11478806	1.0
37	91.04499817	-0.4390000105	-18.65100098	-2.275912285	4.332038403	-34.022892	1.0
38	91.04499817	-0.4390000105	-18.65100098	-1.559254169	4.411106586	-25.86099625	1.0
[LeftHandRing2]
35	31.54000092	0	0	-0.3318776786	1.941061974	-19.40184593	1.0
36	31.54000092	0	0	-0.2320451587	1.630342484	-16.19976425	1.0
37	31.54000092	0	0	-0.1489355564	1.310957193	-12.96271515	1.0
38	31.54000092	0	0	-0.08374249935	0.9857016206	-9.709294319	1.0
[LeftHandRing3]
35	29.37700081	0	0	-0.2465151995	1.679221511	-16.69946671	1.0
36	29.37700081	0	0	-0.1674052924	1.388746619	-13.74658394	1.0
37	29.37700081	0	0	-0.1045499444	1.100274086	-10.85115433	1.0
38	29.37700081	0	0	-0.05743864551	0.8173021078	-8.038087845	1.0
[LeftHandRing4]
35	26.47500038	0	0	0	0	0	1.0
36	26.47500038	0	0	0	0	0	1.0
37	26.47500038	0	0	0	0	0	1.0
38	26.47500038	0	0	0	0	0	1.0
[LeftHandPinky1]
35	80.77799988	-4.887000084	-38.06099701	-3.438593388	-1.995934844	-45.0620079	1.0
36	80.77799988	-4.887000084	-38.06099701	-2.618985176	0.5833212733	-37.33510208	1.0
37	80.77799988	-4.887000084	-38.06099701	-1.910358906	2.377483606	-29.76104164	1.0
38	80.77799988	-4.887000084	-38.06099701	-1.294983149	3.438486814	-22.47429085	1.0
[LeftHandPinky2]
35	36	0	0	-0.08246770501	0.9783714414	-9.636309624	1.0
36	36	0	0	-0.06807098538	0.889437139	-8.752943039	1.0
37	36	0	0	-0.04946614429	0.7593547106	-7.464516163	1.0
38	36	0	0	-0.03064834699	0.5977376699	-5.869525909	1.0
[LeftHandPinky3]
35	21.14200211	0	0	-0.4704160094	2.29553318	-23.13665771	1.0
36	21.14200211	0	0	-0.2820489109	1.793444872	-17.8734951	1.0
37	21.14200211	0	0	-0.1536503434	1.328996539	-13.14570522	1.0
38	21.14200211	0	0	-0.07315274328	0.9217826128	-9.073343277	1.0
[LeftHandPinky4]
35	19.75699997	0	0	0	0	0	1.0
36	19.75699997	0	0	0	0	0	1.0
37	19.75699997	0	0	0	0	0	1.0
38	19.75699997	0	0	0	0	0	1.0
[RightShoulder]
35	-45.70000076	109.4620056	-26.28000069	-7.068863392	17.3953476	-27.14914322	1.0
36	-45.70000076	109.4620056	-26.28000069	-4.592220306	15.20275784	-22.47282219	1.0
37	-45.70000076	109.4620056	-26.28000069	-2.4766922	12.41481113	-17.59421539	1.0
38	-45.70000076	109.4620056	-26.28000069	-0.9208988547	9.563663483	-12.75836468	1.0
[RightArm]
35	-105.9280014	-5.248000145	-22.32099915	-49.91381454	27.70726395	-4.04476881	1.0
36	-105.9280014	-5.248000145	-22.32099915	-42.01319122	25.89168167	1.783532858	1.0
37	-105.9280014	-5.248000145	-22.32099915	-32.99901199	22.14867783	6.447516441	1.0
38	-105.9280014	-5.248000145	-22.32099915	-23.91752243	17.39818573	8.660086632	1.0
[RightForeArm]
35	-278.414978	0	0	-5.862726539e-06	0.1008162498	3.077366046e-06	1.0
36	-278.414978	0	0	-1.406774572e-06	0.1710879952	5.86948363e-06	1.0
37	-278.414978	0	0	8.998315337e-08	0.2452609688	2.184209507e-06	1.0
38	-278.414978	0	0	1.249896627e-06	0.3157048523	-1.916979926e-07	1.0
[RightHand]
35	-283.2879944	0	0.0009999999311	7.780664444	3.010157108	25.76598358	1.0
36	-283.2879944	0	0.0009999999311	5.861007214	3.348469257	21.29649162	1.0
37	-283.2879944	0	0.0009999999311	3.609514475	3.561964512	16.29810524	1.0
38	-283.2879944	0	0.0009999999311	1.238108635	3.611792564	11.11543846	1.0
[RightHandPinky1]
35	-80.76699829	-4.885000229	-38.06000137	-2.984057903	2.926468134	44.28368378	1.0
36	-80.76699829	-4.885000229	-38.06000137	-2.282265902	0.2396255285	36.5912056	1.0
37	-80.76699829	-4.885000229	-38.06000137	-1.675216675	-1.674686074	29.04858398	1.0
38	-80.76699829	-4.885000229	-38.06000137	-1.142225385	-2.862715721	21.78500175	1.0
[RightHandPinky2]
35	-36	0	0.0009999999311	-0.06544747949	-0.7766270638	9.654397964	1.0
36	-36	0	0.0009999999311	-0.05400263146	-0.7058828473	8.769429207	1.0
37	-36	0	0.0009999999311	-0.0392149277	-0.6024161577	7.47863102	1.0
38	-36	0	0.0009999999311	-0.02426079847	-0.4738684893	5.880661964	1.0
[RightHandPinky3]
35	-21.14200211	0	0	-0.3747803867	-1.825726986	23.17613029	1.0
36	-21.14200211	0	0	-0.2247282267	-1.426463366	17.90541649	1.0
37	-21.14200211	0	0	-0.1224379987	-1.057079315	13.16988945	1.0
38	-21.14200211	0	0	-0.05829610303	-0.7331922054	9.090379715	1.0
[RightHandPinky4]
35	-19.75699997	0	0	0	0	0	1.0
36	-19.75699997	0	0	0	0	0	1.0
37	-19.75699997	0	0	0	0	0	1.0
38	-19.75699997	0	0	0	0	0	1.0
[RightHandRing1]
35	-91.03599548	-0.4390000105	-18.65100098	-3.344858408	-2.080152988	49.14630127	1.0
36	-91.03599548	-0.4390000105	-18.65100098	-2.653346777	-2.989630461	41.41542053	1.0
37	-91.03599548	-0.4390000105	-18.65100098	-1.987177372	-3.558122873	33.33871078	1.0
38	-91.03599548	-0.4390000105	-18.65100098	-1.371435881	-3.773246288	25.18625259	1.0
[RightHandRing2]
35	-31.54000092	0	0	-0.2644287646	-1.543854117	19.43613434	1.0
36	-31.54000092	0	0	-0.1848944277	-1.296736836	16.22908592	1.0
37	-31.54000092	0	0	-0.1186700016	-1.042722821	12.98663902	1.0
38	-31.54000092	0	0	-0.06673111767	-0.7840275764	9.727478981	1.0
[RightHandRing3]
35	-29.37700081	0	0	-0.1964123547	-1.335609555	16.7295742	1.0
36	-29.37700081	0	0	-0.1333962828	-1.104598522	13.77181816	1.0
37	-29.37700081	0	0	-0.08331804723	-0.8751490116	10.87139702	1.0
38	-29.37700081	0	0	-0.04577155039	-0.6500842571	8.053249359	1.0
[RightHandRing4]
35	-26.47500038	0	0	0	0	0	1.0
36	-26.47500038	0	0	0	0	0	1.0
37	-26.47500038	0	0	0	0	0	1.0
38	-26.47500038	0	0	0	0	0	1.0
[RightHandMiddle1]
35	-95.32500458	0	0	-3.782061815	-4.265443802	54.50142288	1.0
36	-95.32500458	0	0	-3.040473223	-3.676628828	46.02128601	1.0
37	-95.32500458	0	0	-2.289232492	-3.1763978	37.08569336	1.0
38	-95.32500458	0	0	-1.582680702	-2.7185812	28.0063858	1.0
[RightHandMiddle2]
35	-36.98199844	0	0	-0.6191027761	-2.314581156	29.9367485	1.0
36	-36.98199844	0	0	-0.4332081079	-1.957341313	24.95744133	1.0
37	-36.98199844	0	0	-0.2756556869	-1.575177312	19.84908104	1.0
38	-36.98199844	0	0	-0.152430594	-1.178866029	14.71940994	1.0
[RightHandMiddle3]
35	-29.50900078	0	0	-0.1703953296	-1.24804318	15.57726955	1.0
36	-29.50900078	0	0	-0.1172788218	-1.038636804	12.90912247	1.0
37	-29.50900078	0	0	-0.07520158589	-0.8340030909	10.32880116	1.0
38	-29.50900078	0	0	-0.04286542535	-0.6315273046	7.796592712	1.0
[RightHandMiddle4]
35	-28.3390007	0	0.0009999999311	0	0	0	1.0
36	-28.3390007	0	0.0009999999311	0	0	0	1.0
37	-28.3390007	0	0.0009999999311	0	0	0	1.0
38	-28.3390007	0	0.0009999999311	0	0	0	1.0
[RightHandIndex1]
35	-91.08300018	-5.167999744	22.60099792	-3.440223694	-11.83189106	52.35599899	1.0
36	-91.08300018	-5.167999744	22.60099792	-2.755097628	-9.229486465	43.71025085	1.0
37	-91.08300018	-5.167999744	22.60099792	-2.062942266	-6.924011707	34.9236908	1.0
38	-91.08300018	-5.167999744	22.60099792	-1.431417584	-5.008784294	26.24116516	1.0
[RightHandIndex2]
35	-36.76399994	0	0	-0.3820224702	-1.843111634	23.41012764	1.0
36	-36.76399994	0	0	-0.2689118087	-1.55653441	19.60273743	1.0
37	-36.76399994	0	0	-0.1712424904	-1.248767018	15.61378384	1.0
38	-36.76399994	0	0	-0.09442067146	-0.9306236506	11.57018089	1.0
[RightHandIndex3]
35	-28.83100128	0	0	-0.2649597824	-1.544520974	19.44628906	1.0
36	-28.83100128	0	0	-0.172501862	-1.253394485	15.67218399	1.0
37	-28.83100128	0	0	-0.09973412007	-0.9557523727	11.88740826	1.0
38	-28.83100128	0	0	-0.04960306361	-0.6757318974	8.373200417	1.0
[RightHandIndex4]
35	-23.92700005	0	0	0	0	0	1.0
36	-23.92700005	0	0	0	0	0	1.0
37	-23.92700005	0	0	0	0	0	1.0
38	-23.92700005	0	0	0	0	0	1.0
[RightHandThumb1]
35	-24.64799881	-15.72700024	26.82600021	8.02808857	-1.26439321	11.03329563	1.0
36	-24.64799881	-15.72700024	26.82600021	5.740543842	0.509290278	8.603056908	1.0
37	-24.64799881	-15.72700024	26.82600021	3.181290627	2.283290148	5.922505379	1.0
38	-24.64799881	-15.72700024	26.82600021	0.4759946167	3.827037334	3.08786726	1.0
[RightHandThumb2]
35	-32.29800034	-18.64699936	18.64699936	43.70448303	-45.74134064	-29.08567238	1.0
36	-32.29800034	-18.64699936	18.64699936	35.52580643	-41.57471466	-22.60784721	1.0
37	-32.29800034	-18.64699936	18.64699936	28.13881874	-36.60826492	-17.0410862	1.0
38	-32.29800034	-18.64699936	18.64699936	21.86532402	-31.75195122	-12.73292255	1.0
[RightHandThumb3]
35	-26.52600098	-15.31399918	15.31399918	9.039907455	-18.1993866	-19.93933296	1.0
36	-26.52600098	-15.31399918	15.31399918	6.717375278	-16.36484528	-18.78675461	1.0
37	-26.52600098	-15.31399918	15.31399918	4.492718697	-14.5017252	-17.73010445	1.0
38	-26.52600098	-15.31399918	15.31399918	2.45331955	-12.8777771	-16.81826973	1.0
[RightHandThumb4]
35	-19.54599953	-11.28499985	11.28499985	0	0	0	1.0
36	-19.54599953	-11.28499985	11.28499985	0	0	0	1.0
37	-19.54599953	-11.28499985	11.28499985	0	0	0	1.0
38	-19.54599953	-11.28499985	11.28499985	0	0	0	1.0
[LeftUpLeg]
35	82.07800293	-67.51699829	-15.99599934	-31.85217476	0.9738285542	7.242405415	1.0
36	82.07800293	-67.51699829	-15.99599934	-28.94692039	0.8800029755	6.483323574	1.0
37	82.07800293	-67.51699829	-15.99599934	-25.93623352	0.6484296918	5.553486347	1.0
38	82.07800293	-67.51699829	-15.99599934	-23.11041832	0.3693535328	4.485187054	1.0
[LeftLeg]
35	0	-443.7049866	2.845999956	96.822258	7.867358685	-7.692517757	1.0
36	0	-443.7049866	2.845999956	98.43689728	6.926106453	-7.821980953	1.0
37	0	-443.7049866	2.845999956	99.74766541	5.583312988	-6.591732979	1.0
38	0	-443.7049866	2.845999956	100.7402802	4.107922077	-5.204365253	1.0
[LeftFoot]
35	0	-444.2789917	-29.8219986	-47.61553192	1.194679141	9.72559166	1.0
36	0	-444.2789917	-29.8219986	-45.25980377	2.158875465	8.651929855	1.0
37	0	-444.2789917	-29.8219986	-44.53757858	1.97172904	7.228015423	1.0
38	0	-444.2789917	-29.8219986	-44.33161545	1.670135498	5.616100311	1.0
[LeftToeBase]
35	0	-87.28699493	107.1060028	-47.50902557	-1.304945613e-06	-3.335873089e-07	1.0
36	0	-87.28699493	107.1060028	-49.18453598	1.262006606e-07	3.578687142e-07	1.0
37	0	-87.28699493	107.1060028	-49.70610046	-7.005692737e-08	-2.094145231e-07	1.0
38	0	-87.28699493	107.1060028	-49.48949051	-6.461278304e-07	-1.117940542e-06	1.0
[RightUpLeg]
35	-82.07800293	-67.51699829	-15.99599934	-107.2878494	-3.603758335	-3.659911871	1.0
36	-82.07800293	-67.51699829	-15.99599934	-103.3262482	-3.021916151	-2.805498362	1.0
37	-82.07800293	-67.51699829	-15.99599934	-99.29689789	-2.336826324	-2.058837175	1.0
38	-82.07800293	-67.51699829	-15.99599934	-95.25401306	-1.600401402	-1.40742147	1.0
[RightLeg]
35	0	-443.7049866	2.861999989	84.3223114	-6.829234123	0.1708160341	1.0
36	0	-443.7049866	2.861999989	84.0046463	-5.674572468	0.1013789698	1.0
37	0	-443.7049866	2.861999989	83.30384827	-4.402064323	-0.003187600523	1.0
38	0	-443.7049866	2.861999989	82.17478943	-3.126995802	-0.1942167878	1.0
[RightFoot]
35	0	-444.2770081	-29.83799934	1.24727118	0.9678192139	-1.452132463	1.0
36	0	-444.2770081	-29.83799934	1.883650184	0.9923664927	-1.403113723	1.0
37	0	-444.2770081	-29.83799934	2.736743927	0.7776945233	-1.121119738	1.0
38	0	-444.2770081	-29.83799934	3.791773319	0.4525957704	-0.6802864671	1.0
[RightToeBase]
35	0	-87.28699493	107.1060028	-1.515573604e-05	-2.909377805e-08	-1.999551955e-07	1.0
36	0	-87.28699493	107.1060028	-1.515573604e-05	-2.909377805e-08	-1.999551955e-07	1.0
37	0	-87.28699493	107.1060028	-1.515573604e-05	-2.909377805e-08	-1.999551955e-07	1.0
38	0	-87.28699493	107.1060028	-1.515573604e-05	-2.909377805e-08	-1.999551955e-07	1.0
[EndOfFile]
